<?xml version="1.0" encoding="utf-8"?>
<svg id="master-artboard" viewBox="0 0 160 155" version="1.1" xmlns="http://www.w3.org/2000/svg" x="0px" y="0px" style="enable-background:new 0 0 649 485;" width="160px" height="155px"><defs><linearGradient id="gradient-0" gradientUnits="userSpaceOnUse" x1="80" y1="0" x2="80" y2="155" gradientTransform="matrix(0.9974567183982983, -0.07127483239625937, 0.0751482602616313, 1.0516644902594232, 0.2034638909247075, 5.701987247129793)">
                <stop offset="0" style="stop-color: #33ff00"/>
                <stop offset="1" style="stop-color: rgb(5, 26, 0);"/>
              </linearGradient></defs><rect id="ee-background" x="0" y="0" width="160" height="155" style="fill: url('#gradient-0'); fill-opacity: 0; pointer-events: none;"/>

<linearGradient id="SVGID_1_" gradientUnits="userSpaceOnUse" x1="324.4938" y1="995.3072" x2="324.4938" y2="-222.5641" gradientTransform="matrix(1 0 0 -1 0 474)">
		<stop offset="0" style="stop-color:#9398CC"/>
		<stop offset="1" style="stop-color:#221F72"/>
	</linearGradient>

<path class="st1" d="M 206.1 305.1 C 212.4 307 219.4 309.40000000000003 227 312.5 C 219.4 309.4 212.8 306.2 207 303.1 C 217.2 301.90000000000003 218.82899780273436 300.91887207031255 231.82899780273436 300.91887207031255 C 218.72899780273437 300.91887207031255 217.1 300.50000000000006 206.89999999999998 299.30000000000007 C 212.7 296.1000000000001 219.29999999999998 293.00000000000006 226.89999999999998 289.80000000000007 C 219.29999999999998 293.00000000000006 212.39999999999998 295.4000000000001 206.09999999999997 297.30000000000007 C 212.39999999999998 289.30000000000007 211.14322814941403 289.68950195312505 220.34322814941402 280.3895019531251 C 211.14322814941403 289.5895019531251 211.39999999999995 288.30000000000007 203.39999999999995 294.6000000000001 C 205.29999999999995 288.30000000000007 207.69999999999996 281.4000000000001 210.79999999999995 273.7000000000001 C 207.69999999999996 281.3000000000001 204.49999999999994 287.9000000000001 201.39999999999995 293.7000000000001 C 200.19999999999996 283.5000000000001 199.7865600585937 265.12005615234386 199.7865600585937 252.12005615234386 C 199.7865600585937 265.2200561523439 198.79999999999995 283.60000000000014 197.59999999999994 293.7000000000001 C 194.39999999999995 287.9000000000001 191.29999999999993 281.3000000000001 188.09999999999994 273.7000000000001 C 191.29999999999993 281.3000000000001 193.69999999999993 288.2000000000001 195.59999999999994 294.5000000000001 C 187.59999999999994 288.2000000000001 178.99999999999994 280.5000000000001 169.69999999999993 271.3000000000001 C 178.89999999999992 280.5000000000001 186.59999999999994 289.2000000000001 192.89999999999992 297.2000000000001 C 186.5999999999999 295.3000000000001 179.5999999999999 292.9000000000001 171.99999999999991 289.8000000000001 C 179.5999999999999 292.90000000000015 186.1999999999999 296.10000000000014 191.99999999999991 299.2000000000001 C 181.79999999999993 300.4000000000001 163.8175262451171 299.9155517578126 150.71752624511709 299.9155517578126 C 163.81752624511708 299.9155517578126 181.8999999999999 301.80000000000007 192.0999999999999 303.00000000000006 C 186.2999999999999 306.20000000000005 179.6999999999999 309.30000000000007 172.0999999999999 312.50000000000006 C 179.6999999999999 309.30000000000007 186.5999999999999 306.90000000000003 192.89999999999992 305.00000000000006 C 186.5999999999999 313.00000000000006 178.89999999999992 321.6000000000001 169.69999999999993 330.90000000000003 C 178.89999999999992 321.70000000000005 187.59999999999994 314.00000000000006 195.59999999999994 307.70000000000005 C 193.69999999999993 314.00000000000006 191.29999999999993 321.00000000000006 188.19999999999993 328.6 C 191.29999999999993 321 194.49999999999994 314.40000000000003 197.59999999999994 308.6 C 198.79999999999993 318.8 199.49999999999994 330.20000000000005 199.49999999999994 343.3 C 199.49999999999994 330.2 200.19999999999993 318.7 201.39999999999995 308.6 C 204.59999999999994 314.40000000000003 207.69999999999996 321 210.89999999999995 328.6 C 207.69999999999996 321 205.29999999999995 314.1 203.39999999999995 307.8 C 211.39999999999995 314.1 219.99999999999994 321.8 229.29999999999995 331 C 220.1 321.8 212.4 313.2 206.1 305.1 Z" style="fill: rgb(255, 255, 255);" transform="matrix(-1.4100300073623657, 1.3079825639724731, -1.3127228021621704, -1.41513991355896, 755.9387741088867, 248.80109786987305)"/>
<path d="M 265.8355712890625 252.7646942138672" style="fill: rgb(255, 255, 255); fill-opacity: 1; stroke: rgb(0, 0, 0); stroke-opacity: 1; stroke-width: 0; paint-order: fill;" transform="matrix(1, 0, 0, 1, -200.6155014038086, -155.38684463500977)"/><path d="M 0 0 H 166 V 156 H 0 V 0 Z" id="rect-1" style="fill: rgb(51, 255, 0); fill-opacity: 0; pointer-events: none;" transform="matrix(1, 0, 0, 1, 5.176542282104492, 10.330007553100586)"/></svg>