<?xml version="1.0" encoding="utf-8"?>
<svg id="master-artboard" viewBox="0 0 558.0210571289062 188" version="1.1" xmlns="http://www.w3.org/2000/svg" x="0px" y="0px" style="enable-background:new 0 0 1400 980;" width="558.0210571289062px" height="188px"><rect id="ee-background" x="0" y="0" width="558.0210571289062" height="188" style="fill: white; fill-opacity: 0; pointer-events: none;"/>









<g transform="matrix(1.8528831005096436, 0, 0, 1.8528831005096436, -1017.5253257751465, -360.0985565185547)">
	<path class="st8" d="M553.5,219.2l5.5,3.4c1.9,1.3,3.4,3.5,3.6,5.8c2.8,51.2,15.6,64.1,55.7,66.5c40,2.4,62.4-22.8,66.7-46.2&#10;&#9;&#9;c1.8-9.8,8.8-14.5,16.3-14.5c7.5,0,14.5,4.7,16.3,14.5c4.4,23.4,26.7,48.6,66.7,46.2c40.2-2.4,52.8-15.2,55.6-66.5&#10;&#9;&#9;c0.1-2.3,1.4-4.5,3.3-5.8l4.6-3.4c1.2-0.8,1.8-2.2,1.8-3.7v-12c0-2.1-1.2-3.8-3.3-4.2c-22.9-3.7-40.3-4.8-64.4-4.1&#10;&#9;&#9;c-9.3,0.3-27.7,2.9-38.1,6.8c-12.4,4.6-31.6,11.9-42.5,11.9c-10.8,0-30.2-7.2-42.6-11.9c-10.5-3.9-28.9-6.5-38.2-6.8&#10;&#9;&#9;c-24.1-0.7-42.7,0.3-65.6,4.1c-2,0.3-4.7,2.1-4.7,4.2v12C550.3,217,552.3,218.4,553.5,219.2z" style="fill: rgb(59, 62, 61);"/>
	<path class="st9" d="M728.4,227.7c3-19,79.8-27.5,91.6-13.2c15.2,18.5,5.8,55.3-4.6,63.4c-10.1,7.9-47.3,12.3-63.3,2.5&#10;&#9;&#9;C733.5,269.1,725.1,248.3,728.4,227.7z" style="fill: rgb(70, 73, 72);"/>
	<path class="st9" d="M582.8,214.5c11.8-14.3,88.6-5.8,91.6,13.2c3.3,20.7-5.1,41.4-23.6,52.7c-16,9.8-53.3,5.3-63.4-2.5&#10;&#9;&#9;C577.1,269.8,567.6,233,582.8,214.5z" style="fill: rgb(70, 73, 72);"/>
	<g>
		<path class="st10" d="M832.2,211c0-1.3,2.1-2.4,4.6-2.4c2.6,0,4.6,1.1,4.6,2.4c0,1.3-2.1,2.4-4.6,2.4&#10;&#9;&#9;&#9;C834.3,213.4,832.2,212.3,832.2,211z" style="fill: rgb(255, 255, 255);"/>
		<path class="st10" d="M561.3,211c0-1.3,2.1-2.4,4.6-2.4c2.5,0,4.6,1.1,4.6,2.4c0,1.3-2.1,2.4-4.6,2.4&#10;&#9;&#9;&#9;C563.4,213.4,561.3,212.3,561.3,211z" style="fill: rgb(255, 255, 255);"/>
	</g>
</g>






<path class="st20" d="M620.1,207.5c-7.2-0.4-14.2-0.2-20.2,0.5L580,266.7c2.1,5.1,4.7,9.1,7.4,11.1c1.8,1.4,4.4,2.6,7.5,3.7&#10;&#9;L620.1,207.5z" style="fill: rgb(81, 81, 81);" transform="matrix(1.8528831005096436, 0, 0, 1.8528831005096436, -1017.5253257751465, -360.0985565185547)"/>
<path class="st20" d="M748.8,278.3c1,0.7,2.1,1.5,3.2,2.1c3.8,2.3,8.9,3.9,14.5,4.7l26.3-77.8c-6.5-0.1-13.4,0.2-20.4,1.1&#10;&#9;L748.8,278.3z" style="fill: rgb(81, 81, 81);" transform="matrix(1.8528831005096436, 0, 0, 1.8528831005096436, -1017.5253257751465, -360.0985565185547)"/>
<path class="st20" d="M778.8,286c3.4,0,6.8-0.2,10.2-0.5l25.3-74.8c-2.5-1-5.7-1.8-9.2-2.4L778.8,286z" style="fill: rgb(81, 81, 81);" transform="matrix(1.8528831005096436, 0, 0, 1.8528831005096436, -1017.5253257751465, -360.0985565185547)"/>
<path class="st20" d="M610.5,285.1c11.2,1.5,23.9,1.3,33.4-1.6l22.1-65.2c-7.2-4.1-18.1-7.2-29.7-9L610.5,285.1z" style="fill: rgb(81, 81, 81);" transform="matrix(1.8528831005096436, 0, 0, 1.8528831005096436, -1017.5253257751465, -360.0985565185547)"/>
</svg>